<svg width="150" height="40" viewBox="0 0 150 40" fill="none" xmlns="http://www.w3.org/2000/svg">
<path d="M61.7683 30.8066C61.7683 29.4502 62.8777 28.345 64.2386 28.345C65.5995 28.345 66.7061 29.4502 66.7061 30.8066C66.7061 32.1686 65.5995 33.2738 64.2386 33.2738C62.8777 33.2738 61.7683 32.1658 61.7683 30.8066ZM66.1053 30.8066C66.1053 29.6539 65.2697 28.8194 64.2386 28.8194C63.2047 28.8194 62.3719 29.6539 62.3719 30.8066C62.3719 31.9621 63.2047 32.7965 64.2386 32.7965C65.2697 32.7965 66.1053 31.9621 66.1053 30.8066ZM63.2857 29.4H64.328C64.9959 29.4 65.362 29.6316 65.362 30.2205C65.362 30.6977 65.0853 30.9294 64.6298 30.9713L65.3787 32.1909H64.8478L64.124 30.988H63.8083V32.1909H63.2857V29.4ZM63.8083 30.5973H64.2665C64.5683 30.5973 64.8394 30.5554 64.8394 30.1786C64.8394 29.8465 64.5404 29.7963 64.2693 29.7963H63.8055V30.5973H63.8083Z" fill="#034EA2"/>
<path d="M12.7929 6.66759C9.10149 6.66759 5.97731 9.06502 4.87909 12.3807C4.85394 12.4532 4.82879 12.5314 4.80644 12.604L4.6248 13.3184L0 33.3296H11.6556C15.1375 33.3296 18.1024 31.1275 19.2313 28.0379L19.6701 26.1317L24.1691 6.66479H12.7929V6.66759Z" fill="#034EA2"/>
<path d="M34.7768 0C30.9652 0 27.7516 2.55652 26.7596 6.04521C26.6841 6.30756 26.6254 6.5727 26.5751 6.84343L18.9128 40H30.2889C34.1872 40 37.4595 37.3235 38.3677 33.712V33.7148H38.3733L46.167 0H34.7768Z" fill="#F37021"/>
<path d="M53.698 6.6676C50.1379 6.6676 47.1031 8.89758 45.9071 12.0346C45.8456 12.1937 45.636 12.8579 45.636 12.8579L40.905 33.3296H52.284C56.1934 33.3296 59.4741 30.6419 60.3711 27.0109V27.0137L65.0714 6.6676H53.698Z" fill="#51B848"/>
<path d="M7.71542 14.0525C7.0727 14.58 6.65912 15.2275 6.54176 15.7438L4.13574 26.595L4.26988 26.5923C5.01879 26.5923 5.72578 26.3271 6.36571 25.7996C7.00843 25.2749 7.41362 24.6302 7.57849 23.8878L8.19327 21.1304H13.3602C14.1063 21.1304 14.8161 20.8652 15.4644 20.3405C16.1127 19.813 16.5235 19.1655 16.6856 18.4175L16.7135 18.278H8.8332L9.31384 16.1066H16.7806C17.5323 16.1066 18.2365 15.8443 18.8764 15.3196C19.5163 14.7949 19.9132 14.1362 20.0892 13.3938L20.1199 13.2543H9.81125C9.06234 13.2599 8.35535 13.525 7.71542 14.0525Z" fill="white"/>
<path d="M60.3292 13.9045C59.9128 13.4887 59.3735 13.2794 58.7196 13.2794H48.4192L48.3997 13.3687C48.3606 13.5724 48.341 13.7566 48.341 13.9352C48.341 14.5632 48.5478 15.0907 48.9642 15.5065C49.3805 15.9196 49.9199 16.1317 50.5738 16.1317H52.7981L50.5654 26.5978H50.7051C51.454 26.5978 52.1554 26.3355 52.7925 25.8108C53.4297 25.2888 53.8293 24.6441 53.9858 23.8989L55.6373 16.1345H60.8741L60.8908 16.0452C60.93 15.8526 60.9495 15.6573 60.9495 15.4591C60.9523 14.8367 60.7427 14.3148 60.3292 13.9045Z" fill="white"/>
<path d="M37.725 13.2598H30.7612V13.2515H27.9025L25.0634 26.595H25.2003C25.9464 26.595 26.6506 26.3299 27.2877 25.8024C27.9249 25.2777 28.3245 24.633 28.481 23.8906L29.0594 21.1471H36.0874C36.8363 21.1471 37.5377 20.8819 38.1777 20.3628C38.812 19.8409 39.22 19.1934 39.3877 18.4343L39.9186 16.0229C39.9549 15.8359 39.9745 15.6377 39.9745 15.4368C39.9745 14.8228 39.7621 14.2981 39.3429 13.885C38.9238 13.4692 38.3761 13.2598 37.725 13.2598ZM30.1436 16.1122H37.0403L36.5681 18.2947H29.6658L30.1436 16.1122Z" fill="white"/>
<path d="M72.6722 23.1203C73.4212 23.4999 74.62 23.8739 75.8328 23.8739C77.1406 23.8739 77.8364 23.352 77.8364 22.5621C77.8364 21.8058 77.2384 21.376 75.721 20.8708C73.6251 20.1535 72.2391 19.0399 72.2391 17.276C72.2391 15.2079 74.0527 13.645 77.012 13.645C78.4511 13.645 79.4823 13.9157 80.2312 14.2534L79.5913 16.4499C79.105 16.2155 78.1885 15.875 76.9729 15.875C75.7377 15.875 75.1397 16.4304 75.1397 17.0444C75.1397 17.8175 75.8328 18.158 77.4815 18.7525C79.7058 19.5423 80.737 20.6587 80.737 22.3668C80.737 24.3958 79.1274 26.1234 75.6651 26.1234C74.2232 26.1234 72.8036 25.7466 72.091 25.367L72.6722 23.1203Z" fill="white"/>
<path d="M82.5115 13.1622H85.3562V18.2166H85.3925C85.6915 17.8203 86.066 17.5133 86.5159 17.2984C86.9462 17.0835 87.4688 16.9579 87.9942 16.9579C89.8106 16.9579 91.1938 18.1608 91.1938 20.8233V25.9448H88.3491V21.108C88.3491 19.9582 87.9383 19.1655 86.8708 19.1655C86.1191 19.1655 85.6552 19.6344 85.4484 20.1368C85.373 20.2986 85.3562 20.5331 85.3562 20.7285V25.942H82.5115V13.1622Z" fill="white"/>
<path d="M97.6881 26.1429C95.011 26.1429 92.9543 24.4516 92.9543 21.6132C92.9543 18.772 94.902 16.9551 97.8558 16.9551C100.645 16.9551 102.514 18.8083 102.514 21.4681C102.514 24.6721 100.139 26.1429 97.7049 26.1429H97.6881ZM97.7635 24.1837C98.8869 24.1837 99.5771 23.1203 99.5771 21.5378C99.5771 20.2456 99.0546 18.9143 97.7635 18.9143C96.4166 18.9143 95.8941 20.2456 95.8941 21.5574C95.8941 23.0477 96.5452 24.1837 97.744 24.1837H97.7635Z" fill="white"/>
<path d="M104.275 20.1005C104.275 18.9506 104.235 17.9794 104.199 17.1532H106.669L106.795 18.3757H106.834C107.508 17.4575 108.556 16.9551 109.886 16.9551C111.887 16.9551 113.681 18.6269 113.681 21.4318C113.681 24.633 111.568 26.1429 109.528 26.1429C108.424 26.1429 107.566 25.7103 107.153 25.1354H107.114V29.5032H104.275V20.1005ZM107.117 22.1686C107.117 22.3835 107.139 22.5649 107.175 22.7435C107.362 23.4803 108.016 24.0357 108.838 24.0357C110.073 24.0357 110.802 23.0477 110.802 21.5546C110.802 20.1507 110.146 19.093 108.877 19.093C108.069 19.093 107.362 19.6679 107.172 20.4773C107.136 20.6224 107.114 20.801 107.114 20.9629V22.1686H107.117Z" fill="white"/>
<path d="M115.737 26.0397C115.209 26.0397 114.826 25.6545 114.826 25.1242C114.826 24.5772 115.209 24.2004 115.757 24.2004C116.296 24.2004 116.668 24.5688 116.676 25.1242C116.676 25.6517 116.305 26.0397 115.749 26.0397H115.737Z" fill="white"/>
<path d="M121.424 25.7996C121.142 25.9308 120.614 26.0285 120.016 26.0285C118.384 26.0285 117.339 25.0628 117.339 23.5445C117.339 22.1351 118.353 20.9713 120.234 20.9713C120.647 20.9713 121.1 21.0411 121.43 21.1583L121.181 22.2802C120.997 22.1993 120.717 22.1323 120.303 22.1323C119.474 22.1323 118.937 22.6989 118.948 23.4831C118.948 24.379 119.569 24.8451 120.334 24.8451C120.706 24.8451 120.997 24.7865 121.234 24.686L121.424 25.7996Z" fill="white"/>
<path d="M124.504 26.0397C123.022 26.0397 121.888 25.1075 121.888 23.5334C121.888 21.9649 122.961 20.9629 124.596 20.9629C126.135 20.9629 127.169 21.9844 127.169 23.4552C127.169 25.2219 125.856 26.0397 124.512 26.0397H124.504ZM124.543 24.9568C125.166 24.9568 125.546 24.3707 125.546 23.4971C125.546 22.7826 125.255 22.0458 124.543 22.0458C123.799 22.0458 123.511 22.7798 123.511 23.5055C123.511 24.3316 123.872 24.9568 124.531 24.9568H124.543Z" fill="white"/>
<path d="M128.142 22.6207C128.142 22.0179 128.12 21.5071 128.1 21.0718H129.433L129.494 21.736H129.525C129.743 21.4178 130.199 20.9601 131.056 20.9601C131.719 20.9601 132.227 21.2867 132.443 21.7946H132.462C132.658 21.535 132.876 21.3397 133.124 21.1973C133.404 21.0494 133.714 20.9601 134.086 20.9601C135.055 20.9601 135.79 21.616 135.79 23.0645V25.928H134.262V23.2961C134.262 22.59 134.021 22.1826 133.516 22.1826C133.147 22.1826 132.895 22.4226 132.781 22.7128C132.75 22.8189 132.73 22.9696 132.73 23.0896V25.9308H131.199V23.2068C131.199 22.6012 130.973 22.1853 130.467 22.1853C130.064 22.1853 129.824 22.484 129.732 22.7212C129.679 22.8412 129.67 22.9808 129.67 23.1092V25.9308H128.139V22.6207H128.142Z" fill="white"/>
<path d="M137.83 26.0397C137.305 26.0397 136.922 25.6545 136.922 25.1242C136.922 24.5772 137.305 24.2004 137.853 24.2004C138.389 24.2004 138.761 24.5688 138.772 25.1242C138.772 25.6517 138.397 26.0397 137.841 26.0397H137.83Z" fill="white"/>
<path d="M140.893 21.0717L141.575 23.3241C141.698 23.7315 141.782 24.1195 141.865 24.5074H141.896C141.977 24.1111 142.061 23.7455 142.176 23.3241L142.827 21.0717H144.481L142.6 25.9308H141.03L139.188 21.0717H140.893Z" fill="white"/>
<path d="M145.202 22.6207C145.202 22.0179 145.182 21.5071 145.16 21.0718H146.524L146.599 21.7472H146.63C146.837 21.4262 147.342 20.9601 148.192 20.9601C149.226 20.9601 150 21.6244 150 23.0561V25.928H148.43V23.2347C148.43 22.6068 148.203 22.1798 147.633 22.1798C147.2 22.1798 146.943 22.4672 146.828 22.7463C146.786 22.8468 146.775 22.9863 146.775 23.1231V25.9252H145.205V22.6207H145.202Z" fill="white"/>
</svg>
